<svg width="1440" height="470" viewBox="0 0 1440 470" xmlns="http://www.w3.org/2000/svg" font-family="-apple-system, BlinkMacSystemFont, 'Segoe UI', Helvetica, Arial, sans-serif">
  <defs>
    <marker id="arrow" viewBox="0 0 10 10" refX="9" refY="5" markerWidth="7" markerHeight="7" orient="auto-start-reverse">
      <path d="M0,0 L10,5 L0,10 z" fill="#57606a"/>
    </marker>
    <marker id="arrow-purple" viewBox="0 0 10 10" refX="9" refY="5" markerWidth="7" markerHeight="7" orient="auto-start-reverse">
      <path d="M0,0 L10,5 L0,10 z" fill="#8250df"/>
    </marker>
  </defs>

  <rect x="0" y="0" width="1440" height="470" fill="#ffffff"/>

  <text x="720" y="34" text-anchor="middle" font-size="21" font-weight="700" fill="#1f2328">GTM Wargame — Architecture</text>
  <text x="720" y="55" text-anchor="middle" font-size="13" fill="#57606a">A closed-loop reasoning engine: ML diagnostics in, a numerically guardrailed playbook out</text>

  <!-- ============ MAIN PIPELINE ROW ============ -->
  <!-- Box 1: Data Sources -->
  <rect x="20" y="90" width="190" height="120" rx="12" fill="#f6f8fa" stroke="#d0d7de" stroke-width="1.5"/>
  <text x="115" y="116" text-anchor="middle" font-size="14" font-weight="700" fill="#1f2328">Data Sources</text>
  <text x="115" y="138" text-anchor="middle" font-size="11.5" fill="#57606a">DataSource interface</text>
  <text x="115" y="158" text-anchor="middle" font-size="11" fill="#57606a">Synthetic · CSV</text>
  <text x="115" y="176" text-anchor="middle" font-size="11" fill="#57606a">SQL / Snowflake*</text>
  <text x="115" y="200" text-anchor="middle" font-size="9.5" font-style="italic" fill="#8c959f">*bring your own</text>

  <!-- Box 2: Diagnostic Engine -->
  <rect x="238" y="90" width="190" height="120" rx="12" fill="#f6f8fa" stroke="#d0d7de" stroke-width="1.5"/>
  <text x="333" y="116" text-anchor="middle" font-size="14" font-weight="700" fill="#1f2328">Diagnostic Engine</text>
  <text x="333" y="140" text-anchor="middle" font-size="11.5" fill="#57606a">XGBoost forecast</text>
  <text x="333" y="160" text-anchor="middle" font-size="11.5" fill="#57606a">SHAP attribution</text>
  <text x="333" y="180" text-anchor="middle" font-size="11.5" fill="#57606a">SciPy optimizer</text>

  <!-- Box 3: Context Layer -->
  <rect x="456" y="90" width="190" height="120" rx="12" fill="#f6f8fa" stroke="#d0d7de" stroke-width="1.5"/>
  <text x="551" y="116" text-anchor="middle" font-size="14" font-weight="700" fill="#1f2328">Context Layer</text>
  <text x="551" y="140" text-anchor="middle" font-size="11.5" fill="#57606a">Market regime</text>
  <text x="551" y="160" text-anchor="middle" font-size="11.5" fill="#57606a">detector</text>
  <text x="551" y="182" text-anchor="middle" font-size="11" fill="#57606a">(price war, launch,</text>
  <text x="551" y="198" text-anchor="middle" font-size="11" fill="#57606a">promo fatigue...)</text>

  <!-- Box 4: Agent Boardroom -->
  <rect x="674" y="90" width="190" height="120" rx="12" fill="#f6f8fa" stroke="#d0d7de" stroke-width="1.5"/>
  <text x="769" y="112" text-anchor="middle" font-size="14" font-weight="700" fill="#1f2328">Agent Boardroom</text>

  <rect x="694" y="120" width="150" height="20" rx="5" fill="#ffffff" stroke="#d0d7de"/>
  <text x="769" y="134" text-anchor="middle" font-size="11" fill="#1f2328">Analyst</text>
  <line x1="769" y1="140" x2="769" y2="146" stroke="#57606a" stroke-width="1.5" marker-end="url(#arrow)"/>

  <rect x="694" y="148" width="150" height="20" rx="5" fill="#ffffff" stroke="#d0d7de"/>
  <text x="769" y="162" text-anchor="middle" font-size="11" fill="#1f2328">Strategist</text>
  <line x1="769" y1="168" x2="769" y2="174" stroke="#57606a" stroke-width="1.5" marker-end="url(#arrow)"/>

  <rect x="694" y="176" width="150" height="20" rx="5" fill="#ffffff" stroke="#d0d7de"/>
  <text x="769" y="190" text-anchor="middle" font-size="11" fill="#1f2328">Manager</text>

  <text x="769" y="205" text-anchor="middle" font-size="9" fill="#8c959f">Gemini · OpenAI · Anthropic · Ollama</text>

  <!-- Box 5: Guardrail (accent) -->
  <rect x="892" y="90" width="190" height="120" rx="12" fill="#fbefff" stroke="#8250df" stroke-width="1.5"/>
  <text x="987" y="116" text-anchor="middle" font-size="14" font-weight="700" fill="#6639ba">Guardrail</text>
  <text x="987" y="140" text-anchor="middle" font-size="11.5" fill="#6639ba">ConsistencyChecker</text>
  <text x="987" y="166" text-anchor="middle" font-size="11" fill="#6639ba">Flags any number not</text>
  <text x="987" y="186" text-anchor="middle" font-size="11" fill="#6639ba">backed by ground truth</text>

  <!-- Box 6: UI -->
  <rect x="1222" y="90" width="190" height="120" rx="12" fill="#f6f8fa" stroke="#d0d7de" stroke-width="1.5"/>
  <text x="1317" y="116" text-anchor="middle" font-size="14" font-weight="700" fill="#1f2328">Boardroom UI</text>
  <text x="1317" y="140" text-anchor="middle" font-size="11.5" fill="#57606a">Streamlit dashboard</text>
  <text x="1317" y="162" text-anchor="middle" font-size="11" fill="#57606a">Executive playbook</text>
  <text x="1317" y="180" text-anchor="middle" font-size="11" fill="#57606a">Driver diagnostics</text>
  <text x="1317" y="198" text-anchor="middle" font-size="11" fill="#57606a">Spend optimization</text>

  <!-- Pipeline arrows -->
  <line x1="210" y1="150" x2="236" y2="150" stroke="#57606a" stroke-width="2" marker-end="url(#arrow)"/>
  <line x1="428" y1="150" x2="454" y2="150" stroke="#57606a" stroke-width="2" marker-end="url(#arrow)"/>
  <line x1="646" y1="150" x2="672" y2="150" stroke="#57606a" stroke-width="2" marker-end="url(#arrow)"/>
  <line x1="864" y1="150" x2="890" y2="150" stroke="#57606a" stroke-width="2" marker-end="url(#arrow)"/>
  <line x1="1082" y1="150" x2="1220" y2="150" stroke="#57606a" stroke-width="2" marker-end="url(#arrow)"/>

  <!-- Outcome labels on the Guardrail -> UI arrow -->
  <text x="1151" y="134" text-anchor="middle" font-size="10.5" fill="#1a7f37">✓ verified</text>
  <text x="1151" y="172" text-anchor="middle" font-size="10.5" fill="#cf222e">⚠ hallucination flagged</text>

  <!-- ============ GROUND TRUTH POOL (cross-check) ============ -->
  <rect x="238" y="300" width="408" height="70" rx="10" fill="#f6f8fa" stroke="#8c959f" stroke-width="1.5" stroke-dasharray="5,4"/>
  <text x="442" y="326" text-anchor="middle" font-size="13" font-weight="700" fill="#1f2328">Ground Truth Pool</text>
  <text x="442" y="346" text-anchor="middle" font-size="11" fill="#57606a">SHAP values · optimizer results · market context</text>
  <text x="442" y="362" text-anchor="middle" font-size="10" font-style="italic" fill="#8c959f">every number the agents are allowed to cite</text>

  <!-- Feeds into ground truth pool -->
  <line x1="333" y1="210" x2="333" y2="298" stroke="#8c959f" stroke-width="1.5" stroke-dasharray="5,4" marker-end="url(#arrow)"/>
  <line x1="551" y1="210" x2="551" y2="298" stroke="#8c959f" stroke-width="1.5" stroke-dasharray="5,4" marker-end="url(#arrow)"/>

  <!-- Ground truth pool feeds the Guardrail for cross-checking -->
  <path d="M 646 335 C 900 335, 987 335, 987 212" fill="none" stroke="#8250df" stroke-width="1.5" stroke-dasharray="5,4" marker-end="url(#arrow-purple)"/>
  <text x="820" y="325" text-anchor="middle" font-size="10" fill="#6639ba">cross-checked against</text>

  <!-- ============ LEGEND ============ -->
  <line x1="1000" y1="410" x2="1030" y2="410" stroke="#57606a" stroke-width="2"/>
  <text x="1036" y="414" font-size="10.5" fill="#57606a">pipeline flow</text>
  <line x1="1130" y1="410" x2="1160" y2="410" stroke="#8c959f" stroke-width="1.5" stroke-dasharray="5,4"/>
  <text x="1166" y="414" font-size="10.5" fill="#57606a">ground-truth cross-check</text>

  <text x="20" y="450" font-size="10.5" fill="#8c959f">github.com/abhinandan-084/GTM-Wargame</text>
</svg>
